<svg xmlns="http://www.w3.org/2000/svg" viewBox="0 0 640 640"><!--! Font Awesome Pro 7.0.0 by @fontawesome - https://fontawesome.com License - https://fontawesome.com/license (Commercial License) Copyright 2025 Fonticons, Inc. --><path fill="currentColor" d="M302.3 72.8C299.6 67.4 294.1 64 288 64L192 64C185.9 64 180.4 67.4 177.7 72.8L161.7 104.8C159.1 109.9 159.5 116.1 162.7 120.8L193 166.3C118.6 186.9 64 255 64 336C64 433.2 142.8 512 240 512C247.8 512 255.5 511.5 263 510.5C295.3 550.4 344.6 576 400 576C497.2 576 576 497.2 576 400C576 315.2 516 244.4 436.1 227.7C439.5 233.8 442.6 240.1 445.4 246.5C511.6 266.1 560 327.4 560 400C560 488.4 488.4 560 400 560C311.6 560 240 488.4 240 400C240 321.9 296 256.8 370.1 242.8C388.9 269 400 301.2 400 336C400 396.2 366.8 448.6 317.7 475.9C321.5 480 325.6 483.8 329.9 487.3C381.5 456.6 416 400.3 416 336C416 255.1 361.4 186.9 287 166.3L317.3 120.8C320.5 116 320.9 109.9 318.3 104.8L302.3 72.8zM358.8 228.8C281.5 247.3 224 316.9 224 400C224 435.2 234.3 468 252.2 495.5C248.2 495.8 244.1 496 240 496C151.6 496 80 424.4 80 336C80 247.6 151.6 176 240 176C287.2 176 329.5 196.4 358.8 228.8zM272 160L208 160L176 112L192 80L288 80L304 112L272 160z"/></svg>