<svg width="277" height="125" viewBox="0 0 277 125" fill="none" xmlns="http://www.w3.org/2000/svg">
<g filter="url(#filter0_d_2_41)">
<path d="M57.5111 0.627997C59.7991 0.451998 62.1311 0.363998 64.5071 0.363998C66.9125 0.363998 68.9805 0.950665 70.7111 2.124C72.4711 3.29733 73.3511 4.99866 73.3511 7.228C73.3511 8.9 72.8818 10.4547 71.9431 11.892C71.0338 13.3293 69.9338 14.4147 68.6431 15.148C70.7258 15.7933 72.4711 16.908 73.8791 18.492C75.2871 20.076 75.9911 21.8507 75.9911 23.816C75.9911 26.5733 75.1111 28.6707 73.3511 30.108C71.6205 31.5453 69.2298 32.264 66.1791 32.264C63.1578 32.264 60.2685 32.1467 57.5111 31.912V0.627997ZM66.4431 30.372C68.5845 30.372 70.3445 29.7853 71.7231 28.612C73.1018 27.4093 73.7911 25.884 73.7911 24.036C73.7911 22.188 73.1165 20.5893 71.7671 19.24C70.4471 17.8907 68.6285 16.9667 66.3111 16.468C65.2258 16.2333 63.9645 16.116 62.5271 16.116C61.1191 16.116 60.1511 16.116 59.6231 16.116V30.152C60.9138 30.2987 63.1871 30.372 66.4431 30.372ZM71.2391 7.184C71.2391 5.57067 70.5645 4.324 69.2151 3.444C67.8951 2.564 66.3991 2.124 64.7271 2.124C63.0845 2.124 61.3831 2.18267 59.6231 2.3V14.312C60.0045 14.312 60.7231 14.312 61.7791 14.312C62.8351 14.312 64.3898 14.4 66.4431 14.576C67.7631 13.872 68.8925 12.86 69.8311 11.54C70.7698 10.22 71.2391 8.768 71.2391 7.184ZM97.283 32.44C93.2057 32.44 89.7883 31.0173 87.031 28.172C84.2737 25.3267 82.895 21.8507 82.895 17.744C82.895 13.608 84.2737 10.1173 87.031 7.272C89.7883 4.42666 93.2057 3.004 97.283 3.004C101.36 3.004 104.778 4.42666 107.535 7.272C110.292 10.1173 111.671 13.608 111.671 17.744C111.671 21.8507 110.292 25.3267 107.535 28.172C104.778 31.0173 101.36 32.44 97.283 32.44ZM97.283 4.808C93.763 4.808 90.8297 6.05467 88.483 8.548C86.1657 11.0413 85.007 14.1067 85.007 17.744C85.007 21.352 86.1657 24.4027 88.483 26.896C90.8297 29.36 93.763 30.592 97.283 30.592C100.832 30.592 103.766 29.36 106.083 26.896C108.4 24.4027 109.559 21.352 109.559 17.744C109.559 14.1067 108.4 11.0413 106.083 8.548C103.766 6.05467 100.832 4.808 97.283 4.808ZM120.491 32V3.444H122.515V30.152H135.627V32H120.491ZM152.498 32.44C148.421 32.44 145.003 31.0173 142.246 28.172C139.489 25.3267 138.11 21.8507 138.11 17.744C138.11 13.608 139.489 10.1173 142.246 7.272C145.003 4.42666 148.421 3.004 152.498 3.004C156.575 3.004 159.993 4.42666 162.75 7.272C165.507 10.1173 166.886 13.608 166.886 17.744C166.886 21.8507 165.507 25.3267 162.75 28.172C159.993 31.0173 156.575 32.44 152.498 32.44ZM152.498 4.808C148.978 4.808 146.045 6.05467 143.698 8.548C141.381 11.0413 140.222 14.1067 140.222 17.744C140.222 21.352 141.381 24.4027 143.698 26.896C146.045 29.36 148.978 30.592 152.498 30.592C156.047 30.592 158.981 29.36 161.298 26.896C163.615 24.4027 164.774 21.352 164.774 17.744C164.774 14.1067 163.615 11.0413 161.298 8.548C158.981 6.05467 156.047 4.808 152.498 4.808ZM181.47 4.676C179.886 4.676 178.595 5.05733 177.598 5.82C176.6 6.58267 176.102 7.65333 176.102 9.032C176.102 10.616 176.762 12.0387 178.082 13.3C179.02 14.2093 180.223 15.1773 181.69 16.204C183.186 17.2013 184.212 17.92 184.77 18.36C185.327 18.8 186.002 19.4013 186.794 20.164C188.231 21.6013 188.95 23.2587 188.95 25.136C188.95 27.5707 188.128 29.4187 186.486 30.68C184.872 31.912 182.599 32.528 179.666 32.528C176.762 32.528 174.327 31.7653 172.362 30.24L173.418 28.7C175.412 30.0493 177.524 30.724 179.754 30.724C181.983 30.724 183.714 30.2547 184.946 29.316C186.207 28.3773 186.838 27.0573 186.838 25.356C186.838 23.8893 186.207 22.54 184.946 21.308C184.066 20.428 182.878 19.4747 181.382 18.448C179.915 17.4213 178.888 16.688 178.302 16.248C177.715 15.7787 177.026 15.1627 176.234 14.4C174.738 12.904 173.99 11.1733 173.99 9.208C173.99 7.24267 174.679 5.70267 176.058 4.588C177.466 3.47333 179.402 2.916 181.866 2.916C184.33 2.916 186.544 3.4 188.51 4.368L187.762 5.996C185.943 5.116 183.846 4.676 181.47 4.676ZM222.069 30.504C225.823 30.504 228.83 29.492 231.089 27.468C233.377 25.444 234.521 22.3933 234.521 18.316C234.521 14.2387 233.23 10.9973 230.649 8.592C228.097 6.18667 224.943 4.984 221.189 4.984C218.519 4.984 216.466 5.04267 215.029 5.16V30.196C216.789 30.4013 219.135 30.504 222.069 30.504ZM221.189 3.18C225.589 3.18 229.255 4.544 232.189 7.272C235.151 9.97067 236.633 13.652 236.633 18.316C236.633 22.98 235.269 26.4853 232.541 28.832C229.842 31.1787 226.351 32.352 222.069 32.352C219.106 32.352 216.055 32.2053 212.917 31.912V3.444C215.263 3.268 218.021 3.18 221.189 3.18ZM258.072 32.44C253.995 32.44 250.577 31.0173 247.82 28.172C245.063 25.3267 243.684 21.8507 243.684 17.744C243.684 13.608 245.063 10.1173 247.82 7.272C250.577 4.42666 253.995 3.004 258.072 3.004C262.149 3.004 265.567 4.42666 268.324 7.272C271.081 10.1173 272.46 13.608 272.46 17.744C272.46 21.8507 271.081 25.3267 268.324 28.172C265.567 31.0173 262.149 32.44 258.072 32.44ZM258.072 4.808C254.552 4.808 251.619 6.05467 249.272 8.548C246.955 11.0413 245.796 14.1067 245.796 17.744C245.796 21.352 246.955 24.4027 249.272 26.896C251.619 29.36 254.552 30.592 258.072 30.592C261.621 30.592 264.555 29.36 266.872 26.896C269.189 24.4027 270.348 21.352 270.348 17.744C270.348 14.1067 269.189 11.0413 266.872 8.548C264.555 6.05467 261.621 4.808 258.072 4.808ZM14.2605 96.88V56.24H17.3325V94.832C17.3325 100.549 16.1378 105.115 13.7485 108.528C12.5538 110.277 11.3378 111.728 10.1005 112.88C8.86317 114.075 7.3485 115.312 5.5565 116.592L4.2125 114.608C10.9112 109.701 14.2605 103.792 14.2605 96.88ZM35.478 87.6L29.526 102H26.518L43.926 60.208H45.654L63.19 102H59.926L53.91 87.6H35.478ZM44.63 64.944C43.99 66.864 43.414 68.464 42.902 69.744L36.502 85.104H52.886L46.55 69.808C45.5687 67.4187 44.9287 65.7973 44.63 64.944ZM103.188 99.952C99.9875 101.744 95.5288 102.64 89.8115 102.64C84.1368 102.64 79.1235 100.592 74.7715 96.496C70.4622 92.4 68.3075 87.3227 68.3075 81.264C68.3075 75.1627 70.1848 70.064 73.9395 65.968C77.7368 61.872 82.6222 59.824 88.5955 59.824C93.4168 59.824 98.1315 60.5707 102.74 62.064L101.972 64.496C97.5342 63.1307 92.9475 62.448 88.2115 62.448C83.4755 62.448 79.4862 64.2613 76.2435 67.888C73.0435 71.472 71.4435 75.888 71.4435 81.136C71.4435 86.3413 73.2995 90.7787 77.0115 94.448C80.7662 98.1173 85.0968 99.952 90.0035 99.952C94.9102 99.952 98.9848 99.2693 102.228 97.904L103.188 99.952ZM132.048 102.64C126.117 102.64 121.147 100.571 117.136 96.432C113.125 92.2933 111.12 87.2373 111.12 81.264C111.12 75.248 113.125 70.1707 117.136 66.032C121.147 61.8933 126.117 59.824 132.048 59.824C137.979 59.824 142.928 61.8933 146.896 66.032C150.907 70.1707 152.912 75.2267 152.912 81.2C152.912 84.7413 152.165 88.0267 150.672 91.056C149.179 94.0853 147.131 96.5813 144.528 98.544C154.683 104.56 162.491 108.187 167.952 109.424C170.768 110.107 173.477 110.448 176.08 110.448C178.683 110.448 181.477 110.149 184.464 109.552C187.493 108.955 189.648 108.336 190.928 107.696L191.632 109.36C190.011 110.128 187.643 110.875 184.528 111.6C181.456 112.368 178.555 112.752 175.824 112.752C173.136 112.752 170.256 112.389 167.184 111.664C164.112 110.981 160.912 109.872 157.584 108.336C154.256 106.8 151.675 105.541 149.84 104.56C148.048 103.621 145.445 102.149 142.032 100.144C138.96 101.808 135.632 102.64 132.048 102.64ZM131.984 62.448C126.864 62.448 122.619 64.2613 119.248 67.888C115.877 71.5147 114.192 75.9733 114.192 81.264C114.192 86.512 115.877 90.9493 119.248 94.576C122.619 98.16 126.885 99.952 132.048 99.952C134.736 99.952 137.168 99.44 139.344 98.416C134.523 95.1733 130.768 93.552 128.08 93.552C126.544 93.552 125.136 93.8507 123.856 94.448L122.896 92.656C124.347 91.7173 125.968 91.248 127.76 91.248C129.552 91.248 131.301 91.568 133.008 92.208C134.715 92.848 136.144 93.5093 137.296 94.192C138.491 94.8747 140.027 95.8347 141.904 97.072C144.379 95.408 146.32 93.1893 147.728 90.416C149.179 87.6 149.904 84.528 149.904 81.2C149.904 75.952 148.197 71.5147 144.784 67.888C141.413 64.2613 137.147 62.448 131.984 62.448ZM195.311 97.712C192.495 100.997 188.207 102.64 182.447 102.64C176.687 102.64 172.399 100.997 169.583 97.712C166.767 94.4267 165.359 89.8827 165.359 84.08V60.464H168.303V84.08C168.303 94.704 173.017 100.016 182.447 100.016C191.876 100.016 196.591 94.704 196.591 84.08V60.464H199.535V84.08C199.535 89.8827 198.127 94.4267 195.311 97.712ZM214.493 102V60.464H217.437V102H214.493ZM232.805 102V60.208H234.213L261.477 91.568C262.458 92.6773 263.354 93.7867 264.165 94.896C265.018 95.9627 265.466 96.5173 265.509 96.56C265.424 95.536 265.381 93.5307 265.381 90.544V60.464H268.325V102.256H266.917L239.141 70.384L235.621 66.096C235.706 66.9493 235.749 68.9547 235.749 72.112V102H232.805Z" fill="black"/>
</g>
<defs>
<filter id="filter0_d_2_41" x="0.212494" y="0.363998" width="276.248" height="124.228" filterUnits="userSpaceOnUse" color-interpolation-filters="sRGB">
<feFlood flood-opacity="0" result="BackgroundImageFix"/>
<feColorMatrix in="SourceAlpha" type="matrix" values="0 0 0 0 0 0 0 0 0 0 0 0 0 0 0 0 0 0 127 0" result="hardAlpha"/>
<feOffset dy="4"/>
<feGaussianBlur stdDeviation="2"/>
<feComposite in2="hardAlpha" operator="out"/>
<feColorMatrix type="matrix" values="0 0 0 0 0 0 0 0 0 0 0 0 0 0 0 0 0 0 0.25 0"/>
<feBlend mode="normal" in2="BackgroundImageFix" result="effect1_dropShadow_2_41"/>
<feBlend mode="normal" in="SourceGraphic" in2="effect1_dropShadow_2_41" result="shape"/>
</filter>
</defs>
</svg>
