<svg width="160" height="172" viewBox="0 0 160 172" fill="none" xmlns="http://www.w3.org/2000/svg">
<path d="M49.282 0.603256C38.8094 2.27888 28.0226 5.63011 19.5398 9.92389C10.9522 14.2177 0.898531 21.2343 0.0607222 23.4336C-1.40544 26.8895 24.043 41.5512 37.0291 44.7977C45.5119 46.8922 45.9308 48.4631 39.6472 55.4798C28.8604 67.7327 25.4045 72.6549 20.9012 81.766C14.5129 94.6474 12.1042 104.701 10.8475 124.39C9.69553 142.402 7.60101 152.456 2.67888 163.348C-0.986539 171.412 -0.14873 172.773 6.44902 169.422C16.0838 164.5 27.8132 161.777 43.8363 160.73C52.3191 160.206 63.0011 159.054 67.3997 158.111C98.0844 151.828 122.067 131.72 137.147 99.8837C142.488 88.4685 145.525 78.3101 147.62 64.4862C150.029 48.9868 149.714 44.1693 145.944 37.4669L142.802 31.8117L151.914 22.3863C158.197 15.7886 160.606 12.6468 159.873 11.9137C158.511 10.5522 153.589 14.3224 145.211 22.9099L139.556 28.6699L131.806 24.5856C127.512 22.2816 121.229 18.6162 117.878 16.3122C109.185 10.3428 97.4561 5.10649 87.1929 2.69778C77.0345 0.289078 58.1837 -0.758179 49.282 0.603256ZM89.8111 7.30574C94.9426 8.7719 101.54 11.2853 104.473 12.7515C112.327 16.7311 118.925 20.7107 118.506 21.1296C118.297 21.339 112.956 22.491 106.567 23.643C87.926 26.9942 73.7879 32.0211 59.9641 40.085C54.2042 43.4363 53.1569 43.7504 48.13 43.1221C36.6102 41.7606 20.1681 35.2676 9.06717 27.6226L4.3545 24.3761L7.91518 21.4438C12.5231 17.5689 23.9383 11.5995 31.5833 8.87663C43.1032 4.79231 50.5387 3.84978 65.9335 4.16396C78.0817 4.47813 82.166 5.00175 89.8111 7.30574ZM122.067 28.4604C122.59 30.0313 122.905 31.3927 122.8 31.4975C122.59 31.6022 117.354 34.6393 110.966 38.3047C73.2643 59.7735 41.4276 91.6103 24.9855 124.39C20.4823 133.396 18.8067 134.862 15.5602 132.768C13.8846 131.72 15.5602 108.366 17.8642 99.7789C25.195 72.969 44.5693 51.2907 73.1596 37.6763C83.318 32.8589 98.9222 28.251 109.709 26.8895C120.601 25.4234 120.915 25.5281 122.067 28.4604ZM137.88 33.8015C140.603 36.2102 140.289 37.6763 134.634 49.3009C118.087 83.4417 84.7842 120.305 54.6231 138.004C50.5387 140.413 42.1606 144.602 36.0865 147.22C30.0124 149.943 22.5768 153.399 19.6445 154.97C16.6075 156.436 14.094 157.483 14.094 157.169C14.094 155.074 33.2589 116.221 36.8196 110.985C57.1365 81.1377 89.9158 52.4427 121.334 37.1527C132.644 31.6022 134.948 31.0786 137.88 33.8015ZM144.897 51.7096C145.106 65.5335 139.661 86.7929 132.12 101.664C124.266 117.373 108.452 135.281 95.2568 143.24C81.2235 151.723 63.4201 156.645 46.5591 156.645C38.7047 156.645 38.3905 156.541 37.8669 153.922C37.448 151.514 38.0763 150.885 45.9308 147.01C69.7036 135.176 92.2197 116.221 111.804 91.715C120.81 80.6141 133.168 61.2397 138.718 49.9293C144.059 39.0378 144.792 39.2472 144.897 51.7096Z" fill="white"/>
</svg>
