<svg xmlns="http://www.w3.org/2000/svg" viewBox="0 0 640 640"><!--! Font Awesome Pro 7.0.0 by @fontawesome - https://fontawesome.com License - https://fontawesome.com/license (Commercial License) Copyright 2025 Fonticons, Inc. --><path fill="currentColor" d="M334.6 88.6C382.6 73.8 422.2 78.2 445 101C467.8 123.8 472.2 163.3 457.4 211.4C442.7 259.1 409.6 312.9 361.3 361.2C313 409.5 259 442.6 211.4 457.3C163.3 472.2 123.8 467.8 101 445C78.2 422.2 73.8 382.6 88.6 334.6C103.3 286.9 136.4 233.1 184.7 184.8C233 136.5 286.9 103.3 334.6 88.6zM456.3 89.6C427.2 60.6 380.1 57.8 329.9 73.3C279.2 88.9 223.2 123.7 173.4 173.4C123.6 223.1 88.9 279.2 73.3 329.9C57.8 380.1 60.6 427.2 89.7 456.3L133.5 500.1C182.1 548.7 248 576 316.8 576C459.9 576 576 459.9 576 316.8C576 248 548.7 182.1 500.1 133.4L456.3 89.7zM479.8 135.7L488.8 144.7C534.4 190.3 560 252.2 560 316.7C560 329.3 559 341.7 557.2 353.8L509.7 306.3C506.6 303.2 501.5 303.2 498.4 306.3C495.3 309.4 495.3 314.5 498.4 317.6L553.6 372.8C543.7 414.8 522.9 452.6 494.4 483C494.2 482.8 494 482.5 493.8 482.3L429.8 418.3C426.7 415.2 421.6 415.2 418.5 418.3C415.4 421.4 415.4 426.5 418.5 429.6L482.5 493.6C482.7 493.8 483 494 483.2 494.2C452.8 522.7 415 543.5 373 553.4L317.8 498.2C314.7 495.1 309.6 495.1 306.5 498.2C303.4 501.3 303.4 506.4 306.5 509.5L354 557C341.9 558.9 329.5 559.8 316.9 559.8C252.4 559.8 190.5 534.2 144.9 488.6L135.9 479.6C159.8 484.2 187.5 481.3 216.2 472.4C266.8 456.8 322.8 422.1 372.6 372.3C422.4 322.5 457 266.7 472.6 216.1C481.5 187.4 484.3 159.7 479.8 135.8zM393.5 144.5C397.4 148.4 400.2 154.9 400.2 165.8C400.1 176.7 397 190.7 390.3 206.9C377 239.3 350.7 277.9 314.4 314.2C278.1 350.5 239.5 376.8 207.1 390.2C190.9 396.9 176.9 400 166 400.1C155.2 400.2 148.6 397.3 144.7 393.4C140.8 389.5 138 383 138 372.1C138.1 361.2 141.2 347.2 147.9 331C161.2 298.6 187.5 260 223.9 223.7C260.3 187.4 298.8 161.1 331.2 147.7C347.4 141 361.4 137.9 372.3 137.8C383.1 137.7 389.7 140.6 393.6 144.5zM404.8 133.2C373.6 102 287.4 137.4 212.5 212.4C137.6 287.4 102.1 373.5 133.3 404.7C164.5 435.9 250.7 400.5 325.6 325.5C400.5 250.5 436 164.4 404.8 133.2z"/></svg>