<svg xmlns="http://www.w3.org/2000/svg" viewBox="0 0 640 640"><!--! Font Awesome Pro 7.0.0 by @fontawesome - https://fontawesome.com License - https://fontawesome.com/license (Commercial License) Copyright 2025 Fonticons, Inc. --><path fill="currentColor" d="M408 64C412.4 64 416 67.6 416 72L416 136L480 136C484.4 136 488 139.6 488 144C488 148.4 484.4 152 480 152L416 152L416 216C416 220.4 412.4 224 408 224C403.6 224 400 220.4 400 216L400 152L336 152C331.6 152 328 148.4 328 144C328 139.6 331.6 136 336 136L400 136L400 72C400 67.6 403.6 64 408 64zM202.4 322.5C200.1 327.2 195.6 330.5 190.4 331.3L86.9 346.3C80.3 347.3 77.7 355.3 82.5 359.9L157.4 433.1C161.2 436.8 162.9 442.1 162 447.2L144.3 550.6C143.2 557.1 150 562.1 155.9 559L248.5 510.2C253.2 507.7 258.7 507.7 263.4 510.2L355.9 559C361.8 562.1 368.6 557.1 367.5 550.6L349.9 447.3C349 442.1 350.7 436.8 354.5 433.2L429.4 360C434.1 355.4 431.5 347.3 425 346.4L321.4 331.2C316.2 330.4 311.7 327.2 309.4 322.4L263.1 228.4C260.2 222.4 251.7 222.4 248.7 228.4L202.4 322.4zM71.2 371.4C57 357.5 64.8 333.3 84.5 330.5L188 315.4L234.3 221.4C243.1 203.5 268.6 203.5 277.4 221.4L323.7 315.4L427.2 330.5C446.9 333.4 454.7 357.5 440.5 371.4L365.6 444.6L383.3 547.9C386.7 567.5 366.1 582.5 348.5 573.2L255.9 524.4L163.3 573.2C145.7 582.5 125.1 567.5 128.5 547.9L146.2 444.6L71.3 371.4zM528 224L528 272L576 272C580.4 272 584 275.6 584 280C584 284.4 580.4 288 576 288L528 288L528 336C528 340.4 524.4 344 520 344C515.6 344 512 340.4 512 336L512 288L464 288C459.6 288 456 284.4 456 280C456 275.6 459.6 272 464 272L512 272L512 224C512 219.6 515.6 216 520 216C524.4 216 528 219.6 528 224z"/></svg>