<svg xmlns="http://www.w3.org/2000/svg" viewBox="0 0 640 640"><!--! Font Awesome Pro 7.0.0 by @fontawesome - https://fontawesome.com License - https://fontawesome.com/license (Commercial License) Copyright 2025 Fonticons, Inc. --><path fill="currentColor" d="M391 77.7C400.4 68.3 415.6 68.3 424.9 77.7L437 89.8C462.1 114.9 468.9 151.4 457.3 182.6C488.5 171 525 177.8 550.1 202.9L562.3 215C571.7 224.4 571.7 239.6 562.3 248.9L550.2 261C527.1 284.1 494.2 291.7 464.8 283.7L474.5 293.4C499.5 318.4 512 351.2 512 383.9C512 479.9 416 575.9 240 575.9C112 575.9 64 527.9 64 399.9C64 223.9 160.2 127.9 256.2 127.9C288.9 128 321.5 140.5 346.5 165.4L356.2 175.1C348.2 145.6 355.7 112.8 378.9 89.6L391 77.7zM425.7 101.1L413.7 89C410.6 85.9 405.5 85.9 402.4 89L390.2 101.1C362.1 129.2 362.1 174.8 390.2 202.9L408 220.7L425.8 202.9C453.9 174.8 453.9 129.2 425.8 101.1zM437 249.8C465.1 277.9 510.7 277.9 538.8 249.8L551 237.7C554.1 234.6 554.1 229.5 551 226.4L538.9 214.3C510.8 186.2 465.2 186.2 437.1 214.3L419.3 232.1L437.1 249.9zM256.2 144C172.5 144 80 229 80 400C80 462.7 91.9 501.3 115.3 524.7C138.7 548.1 177.3 560 240 560C411 560 496 467.7 496 384C496 355.3 485.1 326.7 463.2 304.8L335.2 176.8C313.4 155 284.8 144.1 256.2 144zM277.6 362.3C280.7 365.4 280.7 370.5 277.6 373.6L245.6 405.6C242.5 408.7 237.4 408.7 234.3 405.6C231.2 402.5 231.2 397.4 234.3 394.3L266.3 362.3C269.4 359.2 274.5 359.2 277.6 362.3zM373.6 341.6L341.6 373.6C338.5 376.7 333.4 376.7 330.3 373.6C327.2 370.5 327.2 365.4 330.3 362.3L362.3 330.3C365.4 327.2 370.5 327.2 373.6 330.3C376.7 333.4 376.7 338.5 373.6 341.6zM341.6 426.3C344.7 429.4 344.7 434.5 341.6 437.6L309.6 469.6C306.5 472.7 301.4 472.7 298.3 469.6C295.2 466.5 295.2 461.4 298.3 458.3L330.3 426.3C333.4 423.2 338.5 423.2 341.6 426.3zM405.6 437.6C402.5 440.7 397.4 440.7 394.3 437.6C391.2 434.5 391.2 429.4 394.3 426.3L426.3 394.3C429.4 391.2 434.5 391.2 437.6 394.3C440.7 397.4 440.7 402.5 437.6 405.6L405.6 437.6zM213.6 298.3C216.7 301.4 216.7 306.5 213.6 309.6L181.6 341.6C178.5 344.7 173.4 344.7 170.3 341.6C167.2 338.5 167.2 333.4 170.3 330.3L202.3 298.3C205.4 295.2 210.5 295.2 213.6 298.3zM309.6 277.6L277.6 309.6C274.5 312.7 269.4 312.7 266.3 309.6C263.2 306.5 263.2 301.4 266.3 298.3L298.3 266.3C301.4 263.2 306.5 263.2 309.6 266.3C312.7 269.4 312.7 274.5 309.6 277.6zM245.6 202.3C248.7 205.4 248.7 210.5 245.6 213.6L213.6 245.6C210.5 248.7 205.4 248.7 202.3 245.6C199.2 242.5 199.2 237.4 202.3 234.3L234.3 202.3C237.4 199.2 242.5 199.2 245.6 202.3zM181.6 405.6L149.6 437.6C146.5 440.7 141.4 440.7 138.3 437.6C135.2 434.5 135.2 429.4 138.3 426.3L170.3 394.3C173.4 391.2 178.5 391.2 181.6 394.3C184.7 397.4 184.7 402.5 181.6 405.6zM245.6 458.3C248.7 461.4 248.7 466.5 245.6 469.6L213.6 501.6C210.5 504.7 205.4 504.7 202.3 501.6C199.2 498.5 199.2 493.4 202.3 490.3L234.3 458.3C237.4 455.2 242.5 455.2 245.6 458.3z"/></svg>