<svg xmlns="http://www.w3.org/2000/svg" viewBox="0 0 640 640"><!--! Font Awesome Pro 7.0.0 by @fontawesome - https://fontawesome.com License - https://fontawesome.com/license (Commercial License) Copyright 2025 Fonticons, Inc. --><path fill="currentColor" d="M502.4 258.6C504.5 260.9 505.1 264.3 503.8 267.2C502.5 270.1 499.6 272 496.5 272L426 272L539.3 402.7C541.3 405.1 541.8 408.4 540.5 411.3C539.2 414.1 536.3 416 533.2 416L449.8 416L574.6 562.8C576.6 565.2 577.1 568.5 575.8 571.3C574.5 574.1 571.7 575.9 568.5 576L72.5 576C69.4 576 66.6 574.2 65.3 571.3C64 568.5 64.4 565.1 66.5 562.8L191.2 416L107.8 416C104.7 416 101.8 414.2 100.5 411.3C99.2 408.5 99.7 405.1 101.7 402.7L215 272L144.5 272C141.3 272 138.5 270.1 137.2 267.2C135.9 264.3 136.5 260.9 138.6 258.6L242.5 145.2L251.3 149.1L254.3 156L162.6 256L232.4 256C235.5 256 238.4 257.9 239.7 260.7C241 263.5 240.5 266.9 238.4 269.3L125.3 400L208.5 400C211.6 400 214.4 401.8 215.7 404.7C217 407.6 216.5 410.9 214.5 413.2L89.8 560L551.2 560L426.4 413.2C424.4 410.8 423.9 407.5 425.2 404.7C426.5 401.9 429.3 400.1 432.5 400L515.7 400L402.4 269.2C400.4 266.8 399.9 263.5 401.2 260.6C402.5 257.8 405.4 255.9 408.5 255.9L478.3 255.9L386.6 155.8L389.6 149L398.5 145.1L502.4 258.5zM368.5 480C359.7 480 352.5 472.8 352.5 464C352.5 455.2 359.7 448 368.5 448C377.3 448 384.5 455.2 384.5 464C384.5 472.8 377.3 480 368.5 480zM272.5 352C263.7 352 256.5 344.8 256.5 336C256.5 327.2 263.7 320 272.5 320C281.3 320 288.5 327.2 288.5 336C288.5 344.8 281.3 352 272.5 352zM320.5 0C327.7 0 334.3 4.3 337.2 10.9L353.2 47.3L389.6 63.4L392 64.7C397.2 68 400.5 73.8 400.5 80.1C400.5 87.3 396.2 93.9 389.6 96.8L353.2 112.8L337.2 149.2C334.3 155.8 327.7 160.1 320.5 160.1C313.3 160.1 306.7 155.8 303.8 149.2L287.7 112.8L251.3 96.8C244.7 93.9 240.4 87.3 240.4 80.1C240.4 72.9 244.8 66.2 251.4 63.3L287.8 47.2L303.9 10.8L305.2 8.4C308.5 3.2 314.3-.1 320.6-.1zM320.5 16C319.6 16 318.8 16.5 318.5 17.3L301.2 56.6C300.6 58 299.6 59.1 298.4 60L297.1 60.7L257.9 78C257.1 78.4 256.6 79.1 256.6 80C256.6 80.9 257.1 81.7 257.9 82L297.1 99.3L298.4 100C299.6 100.8 300.6 102 301.2 103.4L318.5 142.6C318.9 143.4 319.7 143.9 320.5 143.9C321.3 143.9 322.2 143.4 322.5 142.6L339.8 103.4L340.5 102.1C341.3 100.9 342.5 99.9 343.9 99.3L383.2 82C384 81.6 384.5 80.8 384.5 80C384.5 79.2 384 78.3 383.2 78L344 60.7C342.2 59.9 340.7 58.4 339.9 56.6L322.5 17.3C322.1 16.5 321.3 16 320.5 16z"/></svg>