<svg xmlns="http://www.w3.org/2000/svg" viewBox="0 0 640 640"><!--! Font Awesome Pro 7.0.1 by @fontawesome - https://fontawesome.com License - https://fontawesome.com/license (Commercial License) Copyright 2025 Fonticons, Inc. --><path fill="currentColor" d="M247.4 79.1C251 70 259.9 64 269.7 64L370.3 64C380.1 64 388.9 70 392.6 79.1L412.2 128L227.8 128L247.4 79.1zM210.6 128L104 128C99.6 128 96 131.6 96 136C96 140.4 99.6 144 104 144L536 144C540.4 144 544 140.4 544 136C544 131.6 540.4 128 536 128L429.4 128L407.5 73.1C401.4 58 386.7 48 370.3 48L269.7 48C253.3 48 238.6 58 232.6 73.1L210.6 128zM128 192L128 512C128 547.3 156.7 576 192 576L448 576C483.3 576 512 547.3 512 512L512 192L496 192L496 512C496 538.5 474.5 560 448 560L192 560C165.5 560 144 538.5 144 512L144 192L128 192zM224 264C224 259.6 220.4 256 216 256C211.6 256 208 259.6 208 264L208 472C208 476.4 211.6 480 216 480C220.4 480 224 476.4 224 472L224 264zM328 264C328 259.6 324.4 256 320 256C315.6 256 312 259.6 312 264L312 472C312 476.4 315.6 480 320 480C324.4 480 328 476.4 328 472L328 264zM432 264C432 259.6 428.4 256 424 256C419.6 256 416 259.6 416 264L416 472C416 476.4 419.6 480 424 480C428.4 480 432 476.4 432 472L432 264z"/></svg>